<?xml version="1.0" standalone="no"?>
<!DOCTYPE svg PUBLIC "-//W3C//DTD SVG 20010904//EN"
 "http://www.w3.org/TR/2001/REC-SVG-20010904/DTD/svg10.dtd">
<svg version="1.0" xmlns="http://www.w3.org/2000/svg"
 width="512.000000pt" height="512.000000pt" viewBox="0 0 512.000000 512.000000"
 preserveAspectRatio="xMidYMid meet">
<metadata>
Created by potrace 1.11, written by Peter Selinger 2001-2013
</metadata>
<g transform="translate(0.000000,512.000000) scale(0.100000,-0.100000)"
fill="#000000" stroke="none">
<path d="M2255 4884 c-533 -72 -1030 -325 -1394 -710 -612 -647 -810 -1594
-505 -2421 209 -569 625 -1031 1169 -1298 341 -168 649 -239 1035 -239 386 0
694 71 1035 239 470 231 836 595 1065 1060 168 341 243 658 243 1035 1 371
-75 702 -236 1034 -348 714 -1021 1197 -1810 1301 -145 19 -461 18 -602 -1z
m606 -935 c215 -193 415 -466 546 -746 62 -133 126 -330 159 -493 26 -124 28
-154 28 -370 1 -229 0 -237 -27 -329 -105 -349 -381 -620 -733 -718 -91 -25
-114 -28 -274 -28 -160 0 -183 3 -274 28 -352 98 -628 369 -733 718 -27 91
-28 101 -28 319 1 194 4 239 23 330 33 154 76 280 142 417 65 135 221 373 244
373 3 0 6 -25 6 -56 0 -178 103 -340 269 -422 74 -36 77 -37 195 -37 115 0
124 1 189 32 123 58 219 183 248 321 24 119 -12 490 -66 668 -15 51 -19 74
-10 74 3 0 46 -37 96 -81z"/>
<path d="M2997 2718 c-116 -116 -261 -188 -495 -248 -157 -39 -224 -71 -293
-140 -77 -76 -103 -143 -103 -270 -1 -87 2 -101 31 -162 44 -94 109 -160 202
-206 74 -37 76 -37 195 -36 98 0 133 5 186 23 198 69 351 231 406 431 33 119
19 381 -32 608 -10 39 -20 71 -23 70 -3 -1 -37 -32 -74 -70z"/>
</g>
</svg>
